<svg xmlns="http://www.w3.org/2000/svg" width="760" height="430" viewBox="0 0 760 430">
  <rect width="760" height="430" fill="#ffffff"/>
  <text x="32" y="42" font-family="Arial, sans-serif" font-size="22" font-weight="700" fill="#172033">ACO: feromona sobre componentes</text>
  <text x="32" y="70" font-family="Arial, sans-serif" font-size="14" fill="#46505f">Las aristas gruesas tienen mas feromona. No obligan la decision, solo aumentan su probabilidad.</text>
  <g transform="translate(58,92)">
    <line x1="80" y1="210" x2="190" y2="85" stroke="#d1d5db" stroke-width="3"/>
    <line x1="190" y1="85" x2="350" y2="70" stroke="#16a34a" stroke-width="10" stroke-linecap="round"/>
    <line x1="350" y1="70" x2="510" y2="145" stroke="#16a34a" stroke-width="8" stroke-linecap="round"/>
    <line x1="510" y1="145" x2="570" y2="260" stroke="#16a34a" stroke-width="7" stroke-linecap="round"/>
    <line x1="570" y1="260" x2="320" y2="292" stroke="#22c55e" stroke-width="5" stroke-linecap="round"/>
    <line x1="320" y1="292" x2="80" y2="210" stroke="#d1d5db" stroke-width="3"/>
    <line x1="80" y1="210" x2="350" y2="70" stroke="#a7f3d0" stroke-width="4"/>
    <line x1="190" y1="85" x2="510" y2="145" stroke="#d1d5db" stroke-width="3"/>
    <line x1="350" y1="70" x2="320" y2="292" stroke="#a7f3d0" stroke-width="4"/>
    <line x1="510" y1="145" x2="320" y2="292" stroke="#d1d5db" stroke-width="3"/>
    <g font-family="Arial, sans-serif" font-size="13" font-weight="700" text-anchor="middle">
      <circle cx="80" cy="210" r="17" fill="#f8fafc" stroke="#111827" stroke-width="2"/><text x="80" y="215">A</text>
      <circle cx="190" cy="85" r="17" fill="#f8fafc" stroke="#111827" stroke-width="2"/><text x="190" y="90">B</text>
      <circle cx="350" cy="70" r="17" fill="#f8fafc" stroke="#111827" stroke-width="2"/><text x="350" y="75">C</text>
      <circle cx="510" cy="145" r="17" fill="#f8fafc" stroke="#111827" stroke-width="2"/><text x="510" y="150">D</text>
      <circle cx="570" cy="260" r="17" fill="#f8fafc" stroke="#111827" stroke-width="2"/><text x="570" y="265">E</text>
      <circle cx="320" cy="292" r="17" fill="#f8fafc" stroke="#111827" stroke-width="2"/><text x="320" y="297">F</text>
    </g>
  </g>
  <g font-family="Arial, sans-serif" font-size="14" fill="#111827">
    <rect x="535" y="324" width="185" height="64" rx="6" fill="#f0fdf4" stroke="#bbf7d0"/>
    <line x1="552" y1="346" x2="590" y2="346" stroke="#16a34a" stroke-width="9" stroke-linecap="round"/><text x="604" y="351">tau alta</text>
    <line x1="552" y1="371" x2="590" y2="371" stroke="#d1d5db" stroke-width="3"/><text x="604" y="376">tau baja</text>
  </g>
</svg>
